HIERARCHY
ROOT Hips
{
	OFFSET 0.00 0.00 0.00
	CHANNELS 6 Xposition Yposition Zposition Xrotation Yrotation Zrotation
	JOINT LeftUpLeg
	{
		OFFSET 3.34807 0.00000 0.00000
		CHANNELS 3 Xrotation Yrotation Zrotation
		JOINT LeftLeg
		{
			OFFSET 0.00000 -16.98552 0.00000
			CHANNELS 3 Xrotation Yrotation Zrotation
			JOINT LeftFoot
			{
				OFFSET 0.00000 -16.83686 0.00000
				CHANNELS 3 Xrotation Yrotation Zrotation
				JOINT LeftToeBase
				{
					OFFSET 0.00000 -1.59599 5.95633
					CHANNELS 3 Xrotation Yrotation Zrotation
					End Site
					{
						OFFSET 0.00000 0.00000 2.95275
					}
				}
			}
		}
	}
	JOINT RightUpLeg
	{
		OFFSET -3.34807 0.00000 0.00000
		CHANNELS 3 Xrotation Yrotation Zrotation
		JOINT RightLeg
		{
			OFFSET 0.00000 -16.98552 0.00000
			CHANNELS 3 Xrotation Yrotation Zrotation
			JOINT RightFoot
			{
				OFFSET 0.00000 -16.83686 0.00000
				CHANNELS 3 Xrotation Yrotation Zrotation
				JOINT RightToeBase
				{
					OFFSET 0.00000 -1.59599 5.95633
					CHANNELS 3 Xrotation Yrotation Zrotation
					End Site
					{
						OFFSET 0.00000 0.00000 2.95275
					}
				}
			}
		}
	}
	JOINT Spine
	{
		OFFSET 0.00000 0.03937 0.00000
		CHANNELS 3 Xrotation Yrotation Zrotation
		JOINT Spine1
		{
			OFFSET 0.00000 7.93124 0.00000
			CHANNELS 3 Xrotation Yrotation Zrotation
			JOINT Neck
			{
				OFFSET 0.00000 8.48368 0.00000
				CHANNELS 3 Xrotation Yrotation Zrotation
				JOINT Head
				{
					OFFSET 0.00000 6.65077 0.00000
					CHANNELS 3 Xrotation Yrotation Zrotation
					End Site
					{
						OFFSET 0.00000 4.52755 0.00000
					}
				}
			}
			JOINT LeftShoulder
			{
				OFFSET 0.00000 8.48368 0.00000
				CHANNELS 3 Xrotation Yrotation Zrotation
				JOINT LeftArm
				{
					OFFSET 7.74502 -0.00003 0.00000
					CHANNELS 3 Xrotation Yrotation Zrotation
					JOINT LeftForeArm
					{
						OFFSET 12.49824 -0.00005 0.00000
						CHANNELS 3 Xrotation Yrotation Zrotation
						JOINT LeftHand
						{
							OFFSET 9.88337 -0.00004 0.00000
							CHANNELS 3 Xrotation Yrotation Zrotation
							JOINT LeftHandThumb
							{
								OFFSET 0.00000 0.00000 0.00000
								CHANNELS 3 Xrotation Yrotation Zrotation
								End Site
								{
									OFFSET 0.00000 0.00000 3.93700
								}
							}
							JOINT L_Wrist_End
							{
								OFFSET 3.93700 -0.00001 0.00000
								CHANNELS 3 Xrotation Yrotation Zrotation
							}
						}
					}
				}
			}
			JOINT RightShoulder
			{
				OFFSET 0.00000 8.48368 0.00000
				CHANNELS 3 Xrotation Yrotation Zrotation
				JOINT RightArm
				{
					OFFSET -7.74502 -0.00003 0.00000
					CHANNELS 3 Xrotation Yrotation Zrotation
					JOINT RightForeArm
					{
						OFFSET -12.49824 -0.00005 0.00000
						CHANNELS 3 Xrotation Yrotation Zrotation
						JOINT RightHand
						{
							OFFSET -9.88337 -0.00004 0.00000
							CHANNELS 3 Xrotation Yrotation Zrotation
							JOINT RightHandThumb
							{
								OFFSET 0.00000 0.00000 0.00000
								CHANNELS 3 Xrotation Yrotation Zrotation
								End Site
								{
									OFFSET 0.00000 0.00000 3.93700
								}
							}
							JOINT R_Wrist_End
							{
								OFFSET -5.39369 -0.00002 0.00000
								CHANNELS 3 Xrotation Yrotation Zrotation
							}
						}
					}
				}
			}
		}
	}
}
MOTION
Frames: 16
Frame Time: 0.066664
 -1.0586 32.3805 -5.9468 5.0779 -2.6247 -4.3830 -23.8084 5.9410 9.3661 56.1973 -0.0000 0.0000 -31.0569 11.2924 -21.4224 -3.2297 0.0000 0.0000 -34.0357 -10.2847 1.5079 58.0360 -0.0000 0.0000 -18.8047 -23.7737 26.1801 2.0769 0.0000 -0.0000 -1.0813 -6.7081 -1.3968 22.8193 -8.5102 5.2309 -11.2435 10.6748 4.7813 -18.4720 -6.5958 -2.8138 -14.6356 6.1632 27.6481 -58.4386 -5.2921 -86.1441 -0.0002 -48.6432 -0.0001 -24.5398 -53.6859 47.3469 -0.0000 0.0000 -0.0000 -0.0000 0.0000 -0.0000 23.7255 -14.1807 -9.9132 -12.8925 31.0184 90.3225 0.0000 -5.4420 0.0000 81.5921 -75.7638 -99.8209 -0.0000 0.0000 -0.0000 -0.0000 0.0000 -0.0000
 -1.4030 31.3920 -5.4223 3.5149 -4.8596 -3.5639 -26.7239 4.9397 9.6793 67.7946 -0.0000 0.0000 -29.0221 12.3619 -25.2422 -9.7008 0.0000 0.0000 -32.8988 -11.0121 0.9457 61.0030 -0.0000 0.0000 -26.8263 -22.5131 23.2387 6.0195 -0.0000 -0.0000 -1.0992 -4.7738 -0.7975 23.3166 -6.1203 5.8019 -11.3822 11.2409 4.8054 -18.5309 -6.5762 -2.8296 -11.8578 8.1579 22.9976 -44.8055 -16.5926 -93.6427 -0.0001 -31.9517 -0.0000 -26.5623 -47.0808 42.3096 -0.0000 0.0000 -0.0000 -0.0000 0.0000 -0.0000 19.2837 -7.2701 -7.9470 -27.8644 30.3736 92.6111 0.0000 -5.8153 0.0000 77.7896 -80.5932 -96.3306 -0.0000 0.0000 -0.0000 -0.0000 0.0000 -0.0000
 -1.6986 31.4583 -4.8477 0.9039 -7.1510 -2.9146 -36.4044 2.1935 11.5413 86.4275 -0.0000 0.0000 -5.3148 8.2366 -30.0607 -11.4950 0.0000 -0.0000 -28.9156 -10.7455 0.6605 60.0169 -0.0000 0.0000 -28.2665 -20.1712 22.0919 6.2694 -0.0000 0.0000 -0.9054 -3.5337 -0.3378 23.7107 -4.3662 6.5366 -12.2927 11.8664 5.8522 -15.6811 -5.0106 -5.1833 -9.1983 11.5901 19.7426 -28.9213 -28.9791 -101.4178 -0.0000 -10.4839 -0.0000 -19.0109 -37.5735 38.7609 -0.0000 0.0000 -0.0000 -0.0000 0.0000 -0.0000 14.3414 -0.1347 -7.2301 -46.7036 24.6705 91.4055 0.0000 -3.0302 0.0000 80.8359 -87.7822 -90.2399 -0.0000 0.0000 -0.0000 -0.0000 0.0000 -0.0000
 -1.6734 32.8187 -4.2282 -0.7115 -10.3113 -0.1019 -48.9973 3.0683 11.7278 99.1725 -0.0000 0.0000 -4.8152 10.5445 -27.4905 1.5647 -0.0000 0.0000 -22.3234 -9.0451 -1.6512 50.7598 -0.0000 0.0000 -24.7618 -16.9298 22.4277 6.5654 -0.0000 0.0000 -0.4819 -0.1557 -0.1874 22.1428 -1.9076 4.3661 -12.3039 11.0181 6.1667 -13.7027 -5.8099 -7.1459 -4.7328 19.0709 17.9427 -7.8151 -33.4711 -101.2563 -0.0000 -5.4243 -0.0000 -8.8308 -31.8474 34.1550 -0.0000 0.0000 -0.0000 -0.0000 0.0000 -0.0000 9.3370 4.2066 -10.0516 -62.3542 16.4942 89.6654 -0.0000 6.0055 0.0000 83.7875 -87.2865 -89.5264 -0.0000 -0.0000 0.0000 -0.0000 -0.0000 0.0000
 -1.4711 35.2203 -3.7179 -0.8167 -8.0834 3.1657 -61.9349 2.0787 6.6740 107.3804 -0.0000 0.0000 -7.9521 8.3215 -25.6615 0.3375 -0.0000 -0.0000 -12.2643 -10.0179 -4.5445 31.2305 -0.0000 0.0000 -13.3792 -16.1424 25.7411 5.3228 -0.0000 -0.0000 0.0972 2.8662 0.0391 19.8524 -0.1646 1.3544 -11.2675 7.1905 4.4460 -13.3088 -9.4712 -6.0523 -2.5961 22.7771 20.1759 17.7688 -45.1374 -88.1120 -0.0000 -12.2505 -0.0000 -17.5133 -32.3238 24.3869 -0.0000 -0.0000 0.0000 -0.0000 -0.0000 0.0000 6.7027 4.4679 -14.3052 -72.2416 17.0919 82.4161 -0.0001 17.0447 0.0000 43.8453 -85.7929 -128.3773 -0.0000 -0.0000 0.0000 -0.0000 -0.0000 0.0000
 -1.1551 37.3260 -3.4178 -0.3020 -5.0283 5.5844 -72.7503 2.5315 1.7078 112.3657 -0.0000 0.0000 -11.6548 5.7700 -23.2042 -1.9650 0.0000 0.0000 -6.3924 -14.6331 -7.1006 16.6132 -0.0000 0.0000 3.4435 -13.6572 31.2365 -0.4211 -0.0000 0.0000 0.2109 4.8803 1.1882 19.6571 0.3694 -2.2410 -13.1047 3.9063 4.1531 -11.2255 -11.4823 -7.9390 1.3924 24.8625 22.3503 34.4871 -35.1369 -76.2311 -0.0001 -15.6322 -0.0000 -14.6449 -35.5557 29.2223 -0.0000 0.0000 -0.0000 -0.0000 0.0000 -0.0000 4.4632 3.3574 -18.9500 -79.7139 17.9769 72.6957 -0.0001 24.7271 0.0000 14.7252 -84.9409 -158.6526 -0.0000 -0.0000 0.0000 -0.0000 -0.0000 0.0000
 -1.1122 38.1045 -3.2189 0.3683 -2.8831 6.1973 -77.6932 2.7968 0.0216 115.0983 -0.0000 0.0000 -11.2962 0.9762 -22.3738 -5.3692 0.0000 0.0000 -7.1138 -18.3679 -7.3848 15.8488 -0.0000 0.0000 9.5596 -10.6063 35.8570 -3.8023 -0.0000 0.0000 -0.6132 5.5987 1.3748 20.9140 0.3977 -3.9575 -14.5255 3.1925 4.6472 -11.6793 -13.0455 -9.3442 4.7419 26.4859 25.4167 40.9464 -25.0970 -71.6411 -0.0000 -13.1757 -0.0000 -22.3353 -36.7837 35.0733 -0.0000 -0.0000 0.0000 -0.0000 -0.0000 0.0000 1.8960 3.4213 -21.8975 -87.6171 20.9243 63.0897 -0.0001 24.7803 0.0000 41.6287 -84.1494 -133.9114 -0.0000 -0.0000 0.0000 -0.0000 -0.0000 0.0000
 -1.3197 37.5706 -2.7619 -0.9682 0.7390 5.5377 -72.4301 2.2472 -0.8972 114.5405 -0.0000 0.0000 -8.3709 -0.1872 -22.5147 -5.3209 0.0000 -0.0000 -5.2676 -21.0973 -5.9246 16.7606 -0.0000 0.0000 5.1559 -14.0208 31.5066 0.7145 0.0000 -0.0000 -1.4432 5.3556 1.8838 22.6563 -0.2590 -4.8288 -13.5006 3.7831 5.7353 -14.4522 -15.4189 -10.6236 7.1527 25.8044 28.5516 45.1733 -23.7668 -68.1447 -0.0000 -9.6159 -0.0000 -21.7784 -35.2065 33.5822 -0.0000 0.0000 -0.0000 -0.0000 0.0000 -0.0000 2.0553 1.4444 -23.6284 -95.5719 23.7898 56.9349 -0.0001 21.3787 0.0000 13.2933 -85.9748 -165.4820 -0.0000 0.0000 -0.0000 -0.0000 0.0000 -0.0000
 -1.5476 36.5675 -2.2913 -1.1857 1.2174 3.1609 -60.9050 1.5076 3.1862 107.3207 -0.0000 0.0000 -4.4366 1.5215 -21.4036 -5.1424 0.0000 -0.0000 -2.8779 -20.5255 -3.4877 17.4895 0.0000 0.0000 -2.9916 -11.7246 29.5037 2.7683 0.0000 -0.0000 -1.9965 5.2795 2.9036 22.9660 -0.0552 -4.4117 -12.2782 5.0653 5.8176 -18.1854 -16.3520 -10.3134 5.6403 25.7755 29.9520 44.9351 -23.2070 -67.5209 -0.0000 -7.1266 -0.0000 -21.9543 -32.6641 31.7044 -0.0000 0.0000 -0.0000 -0.0000 0.0000 -0.0000 1.3355 -0.3873 -23.5962 -101.4898 22.6258 58.7744 -0.0001 22.3999 0.0000 4.7475 -85.5397 -176.3342 -0.0000 0.0000 -0.0000 -0.0000 0.0000 -0.0000
 -1.6436 35.8767 -2.0258 0.4859 -1.3781 -0.9164 -47.2626 2.6681 10.3702 91.5344 -0.0000 0.0000 -3.2208 2.1821 -20.0445 -5.4198 -0.0000 0.0000 -2.9002 -17.4620 0.9462 18.2106 -0.0000 0.0000 -7.4725 -11.0136 27.6350 4.6153 -0.0000 -0.0000 -1.9263 4.5774 4.1378 20.7865 0.2649 -2.4574 -12.5762 6.5834 5.9171 -18.1524 -14.0633 -10.0142 3.1307 25.6101 28.3096 39.7127 -24.3639 -73.8484 -0.0000 -8.0508 -0.0000 -24.9056 -37.5431 38.3817 -0.0000 -0.0000 0.0000 -0.0000 -0.0000 0.0000 1.5099 -1.2403 -21.4690 -103.4110 20.4187 68.2322 -0.0001 27.5873 0.0000 5.9203 -83.8291 -172.8123 -0.0000 -0.0000 0.0000 -0.0000 -0.0000 0.0000
 -1.4165 35.6312 -2.0457 2.5339 -3.6076 -3.6961 -34.7594 6.7307 13.8328 69.5239 -0.0000 0.0000 -1.0348 4.9634 -19.8890 -5.7021 0.0000 -0.0000 -4.5151 -14.4937 3.7518 18.2548 -0.0000 0.0000 -8.1002 -11.6018 27.3454 4.7152 0.0000 0.0000 -1.5080 3.6685 4.9121 18.7283 -0.0223 -0.9998 -12.6293 7.7543 5.5826 -17.2143 -11.4163 -9.9677 -2.0562 24.4757 25.4003 28.8605 -24.6726 -82.3317 -0.0000 -12.3641 -0.0000 -27.4017 -41.5219 36.2308 -0.0000 -0.0000 0.0000 -0.0000 -0.0000 0.0000 4.1093 -1.3233 -19.5136 -97.0690 20.0547 77.2517 -0.0001 34.4118 0.0000 11.7017 -82.5366 -164.9492 -0.0000 0.0000 -0.0000 -0.0000 0.0000 -0.0000
 -0.9006 35.1637 -2.4390 4.3981 -4.3914 -4.1453 -26.1853 11.5638 12.8260 50.2532 -0.0000 0.0000 -8.5474 8.8108 -21.1512 -9.7091 0.0000 -0.0000 -11.1017 -11.0251 3.3736 25.7163 -0.0000 0.0000 -11.6765 -14.7677 27.2011 5.0279 -0.0000 0.0000 -0.0301 3.5505 4.4433 16.9737 -0.3284 -1.2037 -12.7537 7.1940 3.9574 -16.4309 -10.3595 -7.6371 -6.5025 23.7450 20.6116 9.6688 -25.1318 -88.6569 -0.0001 -14.1741 -0.0000 -26.5192 -46.5105 39.6363 -0.0000 -0.0000 0.0000 -0.0000 -0.0000 0.0000 5.9965 0.3583 -18.3804 -83.0802 21.6348 82.2540 -0.0001 34.8033 0.0000 17.6155 -82.1554 -156.1543 -0.0000 0.0000 -0.0000 -0.0000 0.0000 -0.0000
 -0.3670 34.1056 -3.1409 6.2273 -0.9982 -3.4567 -26.0656 15.6180 11.2793 46.9938 -0.0000 0.0000 -19.4210 9.3210 -23.4098 -3.1175 -0.0000 0.0000 -21.3081 -9.4566 0.8858 39.9440 -0.0000 0.0000 -17.5731 -18.8864 27.3357 4.3620 -0.0000 -0.0000 0.8175 2.4652 3.3846 17.0944 -2.3801 -3.4720 -13.2985 6.2613 3.0196 -16.3885 -11.4400 -4.3528 -9.4337 18.0130 17.8398 -13.7430 -29.4476 -93.8315 -0.0001 -14.3460 -0.0000 -28.1669 -50.7048 45.5679 -0.0000 0.0000 -0.0000 -0.0000 0.0000 -0.0000 9.1439 2.9252 -15.7121 -69.6312 24.0889 83.9978 -0.0001 25.7956 0.0000 9.5739 -83.7049 -156.5438 -0.0000 0.0000 -0.0000 -0.0000 0.0000 -0.0000
 0.0382 32.7409 -3.7304 6.8254 6.7788 -3.4668 -31.5915 15.5685 10.2711 54.3101 -0.0000 0.0000 -26.3093 6.3599 -19.6924 1.0560 0.0000 0.0000 -32.0335 -11.5488 -3.8450 58.1845 -0.0000 0.0000 -18.3732 -21.0954 29.9760 -0.8098 -0.0000 0.0000 1.1461 0.4037 1.7951 19.2049 -4.8223 -4.1778 -12.9597 5.1288 3.6042 -19.0758 -14.4575 -3.4601 -12.8470 8.2428 19.8602 -36.0675 -24.5968 -98.3577 -0.0001 -16.4299 -0.0000 -32.4161 -49.8489 42.8837 -0.0000 0.0000 -0.0000 -0.0000 0.0000 -0.0000 12.1394 1.0655 -12.4576 -57.4380 23.8607 87.3848 -0.0001 15.6491 0.0000 28.6436 -82.8072 -136.6767 -0.0000 0.0000 -0.0000 -0.0000 0.0000 -0.0000
 0.7463 31.9457 -3.7189 5.9348 7.4317 -3.4804 -30.9531 16.1520 9.4289 56.2755 -0.0000 0.0000 -33.0783 5.6980 -18.5922 5.3330 -0.0000 0.0000 -43.9932 -9.6337 -8.5680 77.8806 -0.0000 0.0000 -4.6905 -17.1749 29.5208 -5.2497 0.0000 -0.0000 0.9412 -0.9163 0.1137 19.9999 -5.9066 -3.6094 -12.8657 5.3952 3.2839 -16.7469 -14.9327 -1.2880 -14.9982 4.1719 22.6658 -50.6134 -16.1275 -98.5400 -0.0001 -27.9257 -0.0000 -38.0162 -52.0718 43.8881 -0.0000 0.0000 -0.0000 -0.0000 0.0000 -0.0000 14.8090 -2.3237 -10.1860 -44.9895 26.7806 92.4429 -0.0000 7.2827 0.0000 61.3010 -80.3528 -110.3025 -0.0000 0.0000 -0.0000 -0.0000 0.0000 -0.0000
 1.4143 32.7395 -3.3256 4.4249 3.9314 -4.9117 -25.9790 16.2086 9.3390 50.9365 -0.0000 0.0000 -31.3398 7.9337 -18.0445 4.2143 0.0000 0.0000 -55.9045 -7.7078 -9.9442 90.3444 -0.0000 0.0000 10.6981 -15.2401 28.2636 8.0793 -0.0000 -0.0000 0.7808 -2.4322 -0.1443 19.2344 -6.6989 -1.9297 -12.2401 7.9565 3.3048 -13.5990 -12.6900 -0.1710 -16.7173 3.9887 25.8853 -58.3445 -12.1184 -93.8810 -0.0002 -40.5804 -0.0001 -37.7921 -53.7129 43.1838 -0.0000 0.0000 -0.0000 -0.0000 0.0000 -0.0000 18.6417 -6.7172 -8.4170 -31.9564 30.7316 92.7393 -0.0000 1.9806 0.0000 83.0907 -81.1791 -97.4812 -0.0000 0.0000 -0.0000 -0.0000 0.0000 -0.0000
